<svg id="Capa_1" enable-background="new 0 0 512 512" height="512" viewBox="0 0 512 512" width="512" xmlns="http://www.w3.org/2000/svg"><g><path d="m114.472 189.458h330.986c36.75 0 66.542 29.792 66.542 66.542 0 36.75-29.792 66.542-66.542 66.542h-330.986z" fill="#9facba"/><path d="m241.671 189.458h-127.2v133.085h127.2c10.472-19.901 16.41-42.54 16.41-66.542s-5.938-46.642-16.41-66.543z" fill="#8d9ca8"/><ellipse cx="114.472" cy="256" fill="#d3effd" rx="114.472" ry="114.37"/><path d="m179.526 161.892c12.784 18.458 20.279 40.851 20.279 64.996 0 63.165-51.251 114.37-114.472 114.37-24.167 0-46.58-7.489-65.054-20.261 20.659 29.828 55.138 49.373 94.192 49.373 63.221 0 114.472-51.205 114.471-114.37.001-39.019-19.561-73.468-49.416-94.108z" fill="#b2e5fb"/><ellipse cx="114.472" cy="256" fill="#e279b3" rx="41.626" ry="41.589"/></g></svg>